<?xml version="1.0" encoding="UTF-8"?>
<svg width="28px" height="28px" viewBox="0 0 28 28" version="1.1" xmlns="http://www.w3.org/2000/svg" xmlns:xlink="http://www.w3.org/1999/xlink">
    <!-- Generator: Sketch 49.3 (51167) - http://www.bohemiancoding.com/sketch -->
    <title>Artboard Copy</title>
    <desc>Created with Sketch.</desc>
    <defs></defs>
    <g id="Artboard-Copy" stroke="none" stroke-width="1" fill="none" fill-rule="evenodd">
        <path d="M9.38051471,16.8584559 C9.38051471,16.4037967 9.15533313,16.0456508 8.70496324,15.7840074 C8.25459334,15.5223639 7.53186772,15.288604 6.53676471,15.0827206 C3.22547364,14.3878642 1.56985294,12.9810155 1.56985294,10.8621324 C1.56985294,9.62683206 2.08240909,8.595286 3.10753676,7.76746324 C4.13266444,6.93964047 5.47303094,6.52573529 7.12867647,6.52573529 C8.89584217,6.52573529 10.3091246,6.94178506 11.3685662,7.77389706 C12.4280077,8.60600906 12.9577206,9.68688061 12.9577206,11.0165441 L9.23897059,11.0165441 C9.23897059,10.4846787 9.06740368,10.0450385 8.72426471,9.69761029 C8.38112574,9.35018209 7.84497914,9.17647059 7.11580882,9.17647059 C6.4895802,9.17647059 6.00490368,9.31801329 5.66176471,9.60110294 C5.31862574,9.88419259 5.14705882,10.2444831 5.14705882,10.6819853 C5.14705882,11.0937521 5.34221619,11.426163 5.73253676,11.6792279 C6.12285734,11.9322929 6.78124537,12.1510407 7.70772059,12.3354779 C8.63419581,12.5199151 9.41482526,12.72794 10.0496324,12.9595588 C12.014103,13.6801507 12.9963235,14.9282999 12.9963235,16.7040441 C12.9963235,17.9736583 12.4515986,19.0009152 11.3621324,19.7858456 C10.2726661,20.570776 8.86581744,20.9632353 7.14154412,20.9632353 C5.97487162,20.9632353 4.93903639,20.7552104 4.03400735,20.3391544 C3.12897832,19.9230984 2.41912022,19.3526384 1.90441176,18.6277574 C1.38970331,17.9028763 1.13235294,17.1201022 1.13235294,16.2794118 L4.65808824,16.2794118 C4.69240213,16.9399543 4.93688498,17.4460767 5.39154412,17.7977941 C5.84620325,18.1495116 6.45526579,18.3253676 7.21875,18.3253676 C7.93076336,18.3253676 8.46905455,18.1902587 8.83363971,17.9200368 C9.19822486,17.6498148 9.38051471,17.2959581 9.38051471,16.8584559 Z M20.6011029,16.1636029 L23.1875,6.78308824 L27.0735294,6.78308824 L22.3768382,20.7058824 L18.8253676,20.7058824 L14.1286765,6.78308824 L18.0147059,6.78308824 L20.6011029,16.1636029 Z" id="sv" fill="#666666"></path>
    </g>
</svg>